<svg xmlns="http://www.w3.org/2000/svg" width="28px" height="28px" viewBox="0 0 502.727 512">
		<path fill="#ffffff" d="M57.843,332.672c-5.786-18.803-8.685-39.059-8.685-59.302c0-88.23,59.309-163.443,141.747-188.039v24.595
			l108.493-54.963L190.912,0v39.053C85.325,66.534,5.773,160.55,5.773,273.37c0,15.904,1.453,31.821,4.339,46.285l4.339-23.142
			L57.843,332.672z"/>
		<path fill="#ffffff" d="M412.205,308.077l-7.232,121.498l101.254-66.528l-33.254-20.269c7.226-21.677,10.112-44.819,10.112-69.427
			c0-104.128-67.974-192.365-160.544-225.632l17.357,13.018L287.84,82.432c86.765,20.25,151.859,98.355,151.859,190.918
			c0,15.917-2.893,31.821-5.786,46.285L412.205,308.077z"/>
		<path fill="#ffffff" d="M389.062,404.986c-36.173,39.059-86.778,63.648-144.634,63.648c-52.064,0-99.802-21.702-134.515-54.963
			l21.696-11.578L30.368,335.558l7.226,121.498L70.861,436.8c43.392,46.285,105.594,75.2,173.568,75.2
			c59.309,0,112.832-21.683,154.765-57.85l-17.357,5.786L389.062,404.986z"/>
		<path fill="#ffffff" d="M228.518,137.408v31.821c-36.16,7.238-56.41,30.381-56.41,59.309c0,31.821,24.595,49.178,59.309,60.742
			c24.589,8.698,34.707,15.923,34.707,28.928s-13.024,20.256-31.814,20.256c-21.696,0-40.499-7.238-54.97-14.464l-10.118,39.066
			c13.018,7.226,34.714,13.018,56.403,14.445v31.84h33.267v-34.72c37.6-7.226,59.302-31.827,59.302-60.749
			c0-30.368-15.91-47.744-54.963-62.189c-28.922-10.125-40.493-17.357-40.493-28.922c0-8.685,7.226-18.803,28.922-18.803
			c24.595,0,39.053,7.238,47.738,11.578l10.118-37.606c-11.571-5.786-26.035-10.125-47.738-11.578V137.44L228.518,137.408
			L228.518,137.408z"/>
</svg>
